<svg width="126" height="115" viewBox="0 0 126 115" fill="none" xmlns="http://www.w3.org/2000/svg">
<path d="M42.341 57.5855C42.341 47.02 51.6441 38.4527 63.1233 38.4527C74.6024 38.4527 83.9106 47.02 83.9106 57.5855C83.9106 68.151 74.6024 76.7183 63.1233 76.7183C51.6441 76.7183 42.341 68.151 42.341 57.5855ZM31.1037 57.5855C31.1037 73.8624 45.4388 87.0566 63.1233 87.0566C80.8077 87.0566 95.1428 73.8624 95.1428 57.5855C95.1428 41.3086 80.8077 28.1145 63.1233 28.1145C45.4388 28.1145 31.1037 41.3086 31.1037 57.5855ZM88.9275 26.9459C88.9259 30.7496 92.2747 33.8344 96.4074 33.8359C100.54 33.8375 103.892 30.7552 103.893 26.9514C103.895 23.1477 100.546 20.0629 96.4134 20.0614C92.2827 20.0632 88.9311 23.144 88.9275 26.9459ZM37.9311 104.303C31.8515 104.048 28.5471 103.116 26.3511 102.328C23.4398 101.285 21.3626 100.043 19.1786 98.0353C16.9946 96.0279 15.6427 94.1179 14.5143 91.4383C13.6583 89.418 12.6456 86.3757 12.3692 80.78C12.0669 74.7302 12.0066 72.9129 12.0066 57.586C12.0066 42.2591 12.0719 40.4468 12.3692 34.392C12.6461 28.7963 13.6663 25.7599 14.5143 23.7337C15.6477 21.0541 16.9976 19.1422 19.1786 17.132C21.3596 15.1219 23.4348 13.8776 26.3511 12.839C28.5461 12.0511 31.8515 11.119 37.9311 10.8646C44.504 10.5864 46.4785 10.5308 63.1233 10.5308C79.7681 10.5308 81.7445 10.591 88.3229 10.8646C94.4025 11.1194 97.7014 12.0584 99.9029 12.839C102.814 13.8776 104.891 15.1246 107.075 17.132C109.259 19.1394 110.606 21.0541 111.74 23.7337C112.596 25.754 113.608 28.7963 113.885 34.392C114.187 40.4468 114.247 42.2591 114.247 57.586C114.247 72.9129 114.187 74.7252 113.885 80.78C113.608 86.3757 112.59 89.4171 111.74 91.4383C110.606 94.1179 109.256 96.0298 107.075 98.0353C104.894 100.041 102.814 101.285 99.9029 102.328C97.7079 103.116 94.4025 104.048 88.3229 104.303C81.75 104.581 79.7756 104.637 63.1233 104.637C46.471 104.637 44.502 104.581 37.9311 104.303ZM37.4148 0.539228C30.7765 0.817473 26.2404 1.78628 22.279 3.20506C18.1764 4.67021 14.7034 6.63583 11.2328 9.8251C7.7623 13.0144 5.63219 16.216 4.04034 19.9921C2.49888 23.6405 1.4463 27.8133 1.14399 33.9232C0.836696 40.0427 0.766357 41.9992 0.766357 57.5855C0.766357 73.1719 0.836696 75.1283 1.14399 81.2479C1.4463 87.3582 2.49888 91.5305 4.04034 95.179C5.63219 98.9527 7.7628 102.158 11.2328 105.346C14.7029 108.534 18.1764 110.497 22.279 111.966C26.2479 113.385 30.7765 114.354 37.4148 114.632C44.067 114.91 46.1891 114.979 63.1233 114.979C80.0574 114.979 82.183 114.915 88.8318 114.632C95.4705 114.354 100.004 113.385 103.968 111.966C108.068 110.497 111.543 108.535 115.014 105.346C118.484 102.157 120.61 98.9527 122.206 95.179C123.748 91.5305 124.805 87.3578 125.103 81.2479C125.405 75.1237 125.475 73.1719 125.475 57.5855C125.475 41.9992 125.405 40.0427 125.103 33.9232C124.8 27.8128 123.748 23.6382 122.206 19.9921C120.61 16.2183 118.479 13.0194 115.014 9.8251C111.549 6.63078 108.068 4.67021 103.973 3.20506C100.004 1.78628 95.47 0.812882 88.8367 0.539228C82.188 0.260982 80.0624 0.19165 63.1283 0.19165C46.1941 0.19165 44.067 0.256391 37.4148 0.539228Z" fill="#106C89"/>
</svg>
