<svg width="125" height="116" viewBox="0 0 125 116" fill="none" xmlns="http://www.w3.org/2000/svg">
<path d="M41.5861 58.1746C41.5861 47.6091 50.8892 39.0418 62.3684 39.0418C73.8475 39.0418 83.1557 47.6091 83.1557 58.1746C83.1557 68.7402 73.8475 77.3074 62.3684 77.3074C50.8892 77.3074 41.5861 68.7402 41.5861 58.1746ZM30.3489 58.1746C30.3489 74.4515 44.684 87.6457 62.3684 87.6457C80.0528 87.6457 94.3879 74.4515 94.3879 58.1746C94.3879 41.8977 80.0528 28.7036 62.3684 28.7036C44.684 28.7036 30.3489 41.8977 30.3489 58.1746ZM88.1727 27.535C88.171 31.3388 91.5198 34.4235 95.6525 34.425C99.7851 34.4266 103.137 31.3443 103.138 27.5405C103.14 23.7368 99.7911 20.652 95.6585 20.6505C91.5278 20.6523 88.1762 23.7331 88.1727 27.535ZM37.1762 104.892C31.0966 104.637 27.7922 103.705 25.5963 102.918C22.6849 101.874 20.6077 100.632 18.4237 98.6245C16.2397 96.6171 14.8878 94.707 13.7594 92.0274C12.9034 90.0071 11.8907 86.9648 11.6143 81.3691C11.312 75.3193 11.2517 73.502 11.2517 58.1751C11.2517 42.8482 11.317 41.0359 11.6143 34.9811C11.8912 29.3854 12.9114 26.349 13.7594 24.3228C14.8928 21.6432 16.2427 19.7313 18.4237 17.7211C20.6047 15.711 22.68 14.4667 25.5963 13.4281C27.7912 12.6402 31.0966 11.7081 37.1762 11.4537C43.7491 11.1755 45.7236 11.1199 62.3684 11.1199C79.0132 11.1199 80.9896 11.1801 87.568 11.4537C93.6476 11.7086 96.9465 12.6475 99.148 13.4281C102.059 14.4667 104.137 15.7137 106.321 17.7211C108.505 19.7285 109.851 21.6432 110.985 24.3228C111.841 26.3431 112.854 29.3854 113.13 34.9811C113.432 41.0359 113.493 42.8482 113.493 58.1751C113.493 73.502 113.432 75.3143 113.13 81.3691C112.853 86.9648 111.835 90.0062 110.985 92.0274C109.851 94.707 108.502 96.6189 106.321 98.6245C104.14 100.63 102.059 101.874 99.148 102.918C96.953 103.705 93.6476 104.637 87.568 104.892C80.9951 105.17 79.0207 105.226 62.3684 105.226C45.7161 105.226 43.7471 105.17 37.1762 104.892ZM36.6599 1.12834C30.0216 1.40658 25.4855 2.37539 21.5241 3.79417C17.4215 5.25932 13.9485 7.22495 10.478 10.4142C7.00742 13.6035 4.87731 16.8051 3.28546 20.5812C1.744 24.2296 0.691414 28.4024 0.389108 34.5123C0.0818132 40.6319 0.0114746 42.5883 0.0114746 58.1746C0.0114746 73.761 0.0818132 75.7174 0.389108 81.837C0.691414 87.9474 1.744 92.1197 3.28546 95.7681C4.87731 99.5418 7.00792 102.747 10.478 105.935C13.948 109.123 17.4215 111.086 21.5241 112.555C25.493 113.974 30.0216 114.943 36.6599 115.221C43.3121 115.499 45.4342 115.569 62.3684 115.569C79.3025 115.569 81.4281 115.504 88.0769 115.221C94.7156 114.943 99.2487 113.974 103.213 112.555C107.313 111.086 110.788 109.124 114.259 105.935C117.729 102.746 119.855 99.5418 121.451 95.7681C122.993 92.1197 124.05 87.9469 124.348 81.837C124.65 75.7128 124.72 73.761 124.72 58.1746C124.72 42.5883 124.65 40.6319 124.348 34.5123C124.045 28.4019 122.993 24.2273 121.451 20.5812C119.855 16.8074 117.724 13.6085 114.259 10.4142C110.794 7.2199 107.313 5.25932 103.218 3.79417C99.2487 2.37539 94.7151 1.40199 88.0819 1.12834C81.4331 0.850094 79.3075 0.780762 62.3734 0.780762C45.4392 0.780762 43.3121 0.845502 36.6599 1.12834Z" fill="#B4D5DF"/>
</svg>
