<svg width="64" height="64" viewBox="0 0 64 64" fill="none" xmlns="http://www.w3.org/2000/svg">
<path d="M21.3359 32C21.3359 26.1092 26.1102 21.3325 32.0013 21.3325C37.8923 21.3325 42.6692 26.1092 42.6692 32C42.6692 37.8908 37.8923 42.6675 32.0013 42.6675C26.1102 42.6675 21.3359 37.8908 21.3359 32ZM15.569 32C15.569 41.0752 22.9257 48.4316 32.0013 48.4316C41.0768 48.4316 48.4336 41.0752 48.4336 32C48.4336 22.9248 41.0768 15.5684 32.0013 15.5684C22.9257 15.5684 15.569 22.9248 15.569 32ZM45.2439 14.9169C45.2431 17.0376 46.9617 18.7576 49.0825 18.7584C51.2034 18.7592 52.9234 17.0407 52.9242 14.9199C52.9251 12.7992 51.2065 11.0792 49.0856 11.0784C46.9658 11.0794 45.2458 12.7971 45.2439 14.9169ZM19.0728 58.0472C15.9528 57.9052 14.257 57.3855 13.13 56.9464C11.6359 56.3648 10.5699 55.6721 9.44908 54.5528C8.32827 53.4336 7.63448 52.3686 7.05539 50.8746C6.61607 49.7482 6.09637 48.052 5.95454 44.9321C5.7994 41.559 5.76842 40.5458 5.76842 32.0003C5.76842 23.4547 5.80196 22.4443 5.95454 19.0684C6.09663 15.9485 6.62017 14.2556 7.05539 13.1259C7.63704 11.6319 8.32981 10.5659 9.44908 9.44512C10.5684 8.32435 11.6334 7.63059 13.13 7.05152C14.2564 6.61222 15.9528 6.09254 19.0728 5.95072C22.446 5.79558 23.4592 5.76461 32.0013 5.76461C40.5433 5.76461 41.5576 5.79814 44.9336 5.95072C48.0536 6.0928 49.7466 6.61632 50.8764 7.05152C52.3705 7.63059 53.4365 8.32589 54.5573 9.44512C55.6781 10.5644 56.3694 11.6319 56.951 13.1259C57.3903 14.2523 57.91 15.9485 58.0519 19.0684C58.207 22.4443 58.238 23.4547 58.238 32.0003C58.238 40.5458 58.207 41.5562 58.0519 44.9321C57.9098 48.052 57.3875 49.7477 56.951 50.8746C56.3694 52.3686 55.6766 53.4346 54.5573 54.5528C53.438 55.671 52.3705 56.3648 50.8764 56.9464C49.75 57.3857 48.0536 57.9054 44.9336 58.0472C41.5604 58.2024 40.5472 58.2333 32.0013 58.2333C23.4554 58.2333 22.4449 58.2024 19.0728 58.0472ZM18.8078 0.193792C15.4011 0.348928 13.0732 0.889088 11.0402 1.68013C8.93476 2.49702 7.15241 3.59296 5.37135 5.37114C3.59029 7.14931 2.49712 8.9344 1.6802 11.0397C0.889124 13.0739 0.348942 15.4004 0.1938 18.807C0.0360974 22.219 0 23.3098 0 32C0 40.6902 0.0360974 41.781 0.1938 45.193C0.348942 48.5998 0.889124 50.9261 1.6802 52.9603C2.49712 55.0643 3.59054 56.8515 5.37135 58.6289C7.15216 60.4063 8.93476 61.5007 11.0402 62.3199C13.077 63.1109 15.4011 63.6511 18.8078 63.8062C22.2217 63.9613 23.3108 64 32.0013 64C40.6918 64 41.7827 63.9639 45.1948 63.8062C48.6018 63.6511 50.9281 63.1109 52.9624 62.3199C55.0665 61.5007 56.8501 60.407 58.6312 58.6289C60.4123 56.8507 61.5031 55.0643 62.3224 52.9603C63.1134 50.9261 63.6562 48.5996 63.8088 45.193C63.9639 41.7784 64 40.6902 64 32C64 23.3098 63.9639 22.219 63.8088 18.807C63.6536 15.4002 63.1134 13.0726 62.3224 11.0397C61.5031 8.93568 60.4095 7.15213 58.6312 5.37114C56.853 3.59014 55.0665 2.49702 52.9649 1.68013C50.9281 0.889088 48.6015 0.346368 45.1973 0.193792C41.7852 0.038656 40.6944 0 32.0038 0C23.3133 0 22.2217 0.036096 18.8078 0.193792Z" fill="#B4D5DF"/>
</svg>
