<svg width="45" height="45" viewBox="0 0 45 45" fill="none" xmlns="http://www.w3.org/2000/svg">
<path d="M14.7031 22.052C14.7031 17.9925 17.9932 14.7008 22.0529 14.7008C26.1126 14.7008 29.4045 17.9925 29.4045 22.052C29.4045 26.1116 26.1126 29.4033 22.0529 29.4033C17.9932 29.4033 14.7031 26.1116 14.7031 22.052ZM10.729 22.052C10.729 28.306 15.7987 33.3755 22.0529 33.3755C28.3071 33.3755 33.3768 28.306 33.3768 22.052C33.3768 15.7981 28.3071 10.7286 22.0529 10.7286C15.7987 10.7286 10.729 15.7981 10.729 22.052ZM31.1788 10.2796C31.1782 11.7411 32.3625 12.9263 33.8241 12.9269C35.2856 12.9275 36.4709 11.7432 36.4715 10.2817C36.4721 8.82024 35.2877 7.635 33.8262 7.63442C32.3653 7.6351 31.18 8.81882 31.1788 10.2796ZM13.1435 40.0019C10.9935 39.904 9.82484 39.5458 9.04823 39.2433C8.01862 38.8425 7.28399 38.3651 6.51161 37.5938C5.73923 36.8225 5.26112 36.0886 4.86205 35.059C4.55931 34.2828 4.20117 33.1139 4.10343 30.9639C3.99652 28.6394 3.97517 27.9412 3.97517 22.0522C3.97517 16.1633 3.99828 15.467 4.10343 13.1405C4.20135 10.9906 4.56213 9.82392 4.86205 9.0454C5.26289 8.01583 5.74029 7.28123 6.51161 6.50888C7.28294 5.73653 8.01686 5.25844 9.04823 4.85939C9.82449 4.55666 10.9935 4.19853 13.1435 4.1008C15.4681 3.99389 16.1664 3.97254 22.0529 3.97254C27.9395 3.97254 28.6385 3.99565 30.965 4.1008C33.115 4.19871 34.2817 4.55948 35.0603 4.85939C36.0899 5.25844 36.8245 5.73759 37.5969 6.50888C38.3693 7.28017 38.8456 8.01583 39.2464 9.0454C39.5492 9.82163 39.9073 10.9906 40.0051 13.1405C40.112 15.467 40.1333 16.1633 40.1333 22.0522C40.1333 27.9412 40.112 28.6375 40.0051 30.9639C39.9072 33.1139 39.5472 34.2825 39.2464 35.059C38.8456 36.0886 38.3682 36.8232 37.5969 37.5938C36.8256 38.3644 36.0899 38.8425 35.0603 39.2433C34.284 39.546 33.115 39.9041 30.965 40.0019C28.6404 40.1088 27.9421 40.1301 22.0529 40.1301C16.1637 40.1301 15.4674 40.1088 13.1435 40.0019ZM12.9609 0.133547C10.6133 0.240455 9.00906 0.612694 7.60808 1.15782C6.15718 1.72077 4.92892 2.476 3.70154 3.70139C2.47416 4.92678 1.72083 6.15693 1.15787 7.60778C0.612719 9.00958 0.240465 10.6129 0.133553 12.9604C0.0248757 15.3117 0 16.0634 0 22.052C0 28.0407 0.0248757 28.7924 0.133553 31.1437C0.240465 33.4914 0.612719 35.0945 1.15787 36.4963C1.72083 37.9463 2.47434 39.1778 3.70154 40.4027C4.92874 41.6276 6.15718 42.3817 7.60808 42.9463C9.01171 43.4914 10.6133 43.8636 12.9609 43.9705C15.3136 44.0774 16.0641 44.1041 22.0529 44.1041C28.0418 44.1041 28.7935 44.0792 31.1449 43.9705C33.4927 43.8636 35.0959 43.4914 36.4978 42.9463C37.9478 42.3817 39.1769 41.6281 40.4043 40.4027C41.6317 39.1773 42.3834 37.9463 42.948 36.4963C43.4931 35.0945 43.8672 33.4912 43.9723 31.1437C44.0792 28.7906 44.1041 28.0407 44.1041 22.052C44.1041 16.0634 44.0792 15.3117 43.9723 12.9604C43.8654 10.6127 43.4931 9.0087 42.948 7.60778C42.3834 6.15781 41.6297 4.92872 40.4043 3.70139C39.1789 2.47406 37.9478 1.72077 36.4995 1.15782C35.0959 0.612694 33.4926 0.238691 31.1467 0.133547C28.7953 0.0266389 28.0436 0 22.0547 0C16.0658 0 15.3136 0.0248747 12.9609 0.133547Z" fill="white"/>
</svg>
