<svg width="49" height="35" viewBox="0 0 49 35" fill="none" xmlns="http://www.w3.org/2000/svg">
<path d="M20.6808 34.5363C11.4748 34.3653 8.3305 34.2115 6.39783 33.8098C5.09024 33.5429 3.95396 32.9503 3.1208 32.0909C2.47687 31.4404 1.96478 30.4479 1.56749 29.071C1.22669 27.9238 1.09396 26.9694 0.904728 24.6379C0.615051 19.3762 0.545995 15.0744 0.904728 10.2677C1.20068 7.61331 1.34418 4.46225 3.31003 2.6239C4.23825 1.76353 5.31804 1.20985 6.53056 0.980965C8.42467 0.61818 16.4944 0.33139 24.8484 0.33139C33.1835 0.33139 41.2711 0.61818 43.1671 0.980965C44.6818 1.26775 46.1024 2.12722 46.9364 3.23548C48.7301 6.08166 48.7615 9.62084 48.9436 12.3892C49.0189 13.7083 49.0189 21.1983 48.9436 22.5173C48.6602 26.8925 48.4324 28.4404 47.7884 30.0453C47.3902 31.0586 47.0503 31.5933 46.462 32.1859C45.5393 33.0978 44.363 33.7043 43.0899 33.9247C35.1234 34.529 28.3586 34.6602 20.6808 34.5363ZM32.8804 16.9561C28.4482 14.5668 24.2044 12.3512 19.8665 10.0578V23.7785C24.4313 21.2752 29.2437 18.9818 32.8992 16.9371L32.8804 16.9561Z" fill="white"/>
</svg>
